<?xml version="1.0" encoding="UTF-8"?>
<svg width="482px" height="93px" viewBox="0 0 482 93" version="1.1" xmlns="http://www.w3.org/2000/svg" xmlns:xlink="http://www.w3.org/1999/xlink">
    <!-- Generator: Sketch 60 (88103) - https://sketch.com -->
    <title>Overdrop Logo</title>
    <desc>Created with Sketch.</desc>
    <g id="Page-1" stroke="none" stroke-width="1" fill="none" fill-rule="evenodd">
        <g id="Overdrop-Logo" fill-rule="nonzero">
            <g id="Group-Copy-4" transform="translate(0.000000, 2.560000)" fill="#0E46CD">
                <path d="M74.8799983,78.3999982 L74.8799983,86.7199981 L0,86.7199981 L0,78.3999982 L74.8799983,78.3999982 Z M37.4090582,1.13686838e-13 L67.4090969,17.0098259 L67.4090969,53.9706578 C64.5332762,59.2974621 60.5136632,63.4641341 55.3502578,66.470674 C50.1868525,69.4772138 44.2064526,70.9804837 37.4090582,70.9804837 C30.5463042,70.9804837 24.5495645,69.4772138 19.4188389,66.470674 C14.2881133,63.4641341 10.2685003,59.2974621 7.35999984,53.9706578 L7.35999984,17.0098259 L37.4090582,1.13686838e-13 Z" id="Combined-Shape"></path>
            </g>
            <path d="M125.381991,71.7647984 C130.02252,71.7647984 134.238211,70.6863657 138.029066,68.5295001 C141.81992,66.3726346 144.81012,63.3824347 146.999666,59.5589003 C149.189211,55.735366 150.283984,51.3072557 150.283984,46.2745695 C150.283984,41.2418833 149.189211,36.813773 146.999666,32.9902386 C144.81012,29.1667043 141.83626,26.1765043 138.078085,24.0196388 C134.319911,21.8627733 130.120559,20.7843405 125.48003,20.7843405 C120.774142,20.7843405 116.54211,21.8627733 112.783935,24.0196388 C109.02576,26.1765043 106.03556,29.1667043 103.813335,32.9902386 C101.59111,36.813773 100.479998,41.2418833 100.479998,46.2745695 C100.479998,51.3072557 101.57477,55.735366 103.764316,59.5589003 C105.953861,63.3824347 108.927721,66.3726346 112.685896,68.5295001 C116.444071,70.6863657 120.676102,71.7647984 125.381991,71.7647984 Z M125.381991,60.8824315 C122.114013,60.8824315 119.287212,59.6569397 116.901588,57.2059561 C114.515964,54.7549726 113.323152,51.111177 113.323152,46.2745695 C113.323152,41.4379619 114.515964,37.7941664 116.901588,35.3431828 C119.287212,32.8921993 122.146692,31.6667075 125.48003,31.6667075 C128.682649,31.6667075 131.49311,32.8921993 133.911413,35.3431828 C136.329717,37.7941664 137.538869,41.4379619 137.538869,46.2745695 C137.538869,51.111177 136.329717,54.7549726 133.911413,57.2059561 C131.49311,59.6569397 128.649969,60.8824315 125.381991,60.8824315 Z M181.744894,70.5883263 L199.686094,21.9608126 L186.548822,21.9608126 L174.195865,58.7255659 L161.842908,21.9608126 L148.705636,21.9608126 L166.548796,70.5883263 L181.744894,70.5883263 Z M223.205818,71.7647984 C227.127392,71.7647984 230.640468,71.0458433 233.745047,69.6079329 C236.849626,68.1700226 239.464009,66.1928958 241.588195,63.6765527 C243.71238,61.1602096 245.23199,58.3660883 246.147024,55.294189 L246.147024,55.294189 L233.40191,55.294189 C232.552235,57.1242567 231.261384,58.6111867 229.529356,59.754979 C227.797327,60.8987714 225.656802,61.4706675 223.107779,61.4706675 C219.709082,61.4706675 216.816921,60.3922348 214.431297,58.2353692 C212.045673,56.0785037 210.722142,53.1046437 210.460704,49.3137891 L210.460704,49.3137891 L247.421536,49.3137891 C247.486895,48.4641148 247.535915,47.6471203 247.568595,46.8628055 C247.601274,46.0784908 247.617614,45.3268558 247.617614,44.6079007 C247.617614,40.1634505 246.588201,36.1274976 244.529375,32.5000419 C242.470549,28.8725863 239.611068,26.0131054 235.950933,23.9215995 C232.290797,21.8300935 228.075105,20.7843405 223.303857,20.7843405 C218.205812,20.7843405 213.777701,21.8791132 210.019527,24.0686585 C206.261352,26.2582038 203.320171,29.3137633 201.195986,33.235337 C199.0718,37.1569107 198.009707,41.6340406 198.009707,46.6667269 C198.009707,51.6340535 199.08814,56.0131441 201.245005,59.8039987 C203.401871,63.5948533 206.375731,66.5360335 210.166586,68.6275395 C213.95744,70.7190455 218.303851,71.7647984 223.205818,71.7647984 Z M234.8725,41.4706417 L210.656782,41.4706417 C211.310378,37.9412254 212.813648,35.3105031 215.166592,33.5784747 C217.519536,31.8464463 220.231958,30.9804321 223.303857,30.9804321 C226.506476,30.9804321 229.186218,31.9281458 231.343083,33.823573 C233.499949,35.7190003 234.676421,38.2680232 234.8725,41.4706417 L234.8725,41.4706417 Z M265.058899,70.5883263 L265.058899,48.431435 C265.058899,44.70594 265.663475,41.7974395 266.872627,39.7059336 C268.081779,37.6144276 269.764788,36.1438375 271.921653,35.2941632 C274.078519,34.4444889 276.529502,34.0196517 279.274604,34.0196517 L282.80402,34.0196517 L282.80402,20.7843405 C278.686368,20.7843405 275.107932,21.7157143 272.068712,23.5784618 C269.029492,25.4412093 266.627529,27.9412125 264.86282,31.0784715 L264.86282,21.9608126 L252.509863,21.9608126 L252.509863,70.5883263 L265.058899,70.5883263 Z M307.108059,71.7647984 C311.225711,71.7647984 314.575389,70.9478039 317.157091,69.3138149 C319.738794,67.6798258 321.81396,65.7843986 323.38259,63.627533 L323.38259,70.5883263 L335.931625,70.5883263 L335.931625,0 L323.38259,0 L323.38259,28.6274879 C321.683241,26.1438246 319.461016,24.2157175 316.715914,22.8431667 C313.970813,21.4706159 310.768194,20.7843405 307.108059,20.7843405 C302.53289,20.7843405 298.447917,21.8791132 294.853141,24.0686585 C291.258365,26.2582038 288.415224,29.2647436 286.323718,33.088278 C284.232212,36.9118123 283.186459,41.274563 283.186459,46.1765301 C283.186459,51.0784972 284.232212,55.4575879 286.323718,59.313802 C288.415224,63.1700161 291.258365,66.2092357 294.853141,68.4314608 C298.447917,70.6536859 302.53289,71.7647984 307.108059,71.7647984 Z M309.755121,60.7843921 C305.768188,60.7843921 302.46753,59.4118413 299.853148,56.6667398 C297.238765,53.9216382 295.931574,50.4249016 295.931574,46.1765301 C295.931574,41.9281587 297.238765,38.4641019 299.853148,35.7843599 C302.46753,33.1046179 305.768188,31.7647468 309.755121,31.7647468 C313.807414,31.7647468 317.124412,33.1209577 319.706114,35.8333795 C322.287817,38.5458013 323.578668,42.026198 323.578668,46.2745695 C323.578668,50.522941 322.287817,54.0033376 319.706114,56.7157594 C317.124412,59.4281812 313.807414,60.7843921 309.755121,60.7843921 Z M355.529776,70.5883263 L355.529776,48.431435 C355.529776,44.70594 356.134352,41.7974395 357.343504,39.7059336 C358.552656,37.6144276 360.235664,36.1438375 362.39253,35.2941632 C364.549395,34.4444889 367.000379,34.0196517 369.74548,34.0196517 L373.274897,34.0196517 L373.274897,20.7843405 C369.157244,20.7843405 365.578808,21.7157143 362.539589,23.5784618 C359.500369,25.4412093 357.098405,27.9412125 355.333697,31.0784715 L355.333697,21.9608126 L342.98074,21.9608126 L342.98074,70.5883263 L355.529776,70.5883263 Z M398.559329,71.7647984 C403.199858,71.7647984 407.41555,70.6863657 411.206404,68.5295001 C414.997259,66.3726346 417.987459,63.3824347 420.177004,59.5589003 C422.366549,55.735366 423.461322,51.3072557 423.461322,46.2745695 C423.461322,41.2418833 422.366549,36.813773 420.177004,32.9902386 C417.987459,29.1667043 415.013599,26.1765043 411.255424,24.0196388 C407.497249,21.8627733 403.297897,20.7843405 398.657368,20.7843405 C393.95148,20.7843405 389.719448,21.8627733 385.961274,24.0196388 C382.203099,26.1765043 379.212899,29.1667043 376.990674,32.9902386 C374.768449,36.813773 373.657336,41.2418833 373.657336,46.2745695 C373.657336,51.3072557 374.752109,55.735366 376.941654,59.5589003 C379.131199,63.3824347 382.105059,66.3726346 385.863234,68.5295001 C389.621409,70.6863657 393.853441,71.7647984 398.559329,71.7647984 Z M398.559329,60.8824315 C395.291351,60.8824315 392.46455,59.6569397 390.078926,57.2059561 C387.693302,54.7549726 386.50049,51.111177 386.50049,46.2745695 C386.50049,41.4379619 387.693302,37.7941664 390.078926,35.3431828 C392.46455,32.8921993 395.324031,31.6667075 398.657368,31.6667075 C401.859987,31.6667075 404.670448,32.8921993 407.088752,35.3431828 C409.507056,37.7941664 410.716207,41.4379619 410.716207,46.2745695 C410.716207,51.111177 409.507056,54.7549726 407.088752,57.2059561 C404.670448,59.6569397 401.827307,60.8824315 398.559329,60.8824315 Z M441.490843,92.1569816 L441.490843,63.9216511 C443.190191,66.4053144 445.412417,68.3334215 448.157518,69.7059723 C450.90262,71.078523 454.105238,71.7647984 457.765374,71.7647984 C462.340543,71.7647984 466.425515,70.6700258 470.020291,68.4804805 C473.615067,66.2909352 476.458208,63.2843953 478.549714,59.460861 C480.64122,55.6373267 481.686973,51.2745759 481.686973,46.3726088 C481.686973,41.4706417 480.64122,37.0915511 478.549714,33.235337 C476.458208,29.3791229 473.615067,26.3399033 470.020291,24.1176782 C466.425515,21.8954531 462.340543,20.7843405 457.765374,20.7843405 C453.647721,20.7843405 450.298044,21.601335 447.716341,23.2353241 C445.134638,24.8693131 443.059472,26.7647404 441.490843,28.9216059 L441.490843,21.9608126 L428.941807,21.9608126 L428.941807,92.1569816 L441.490843,92.1569816 Z M455.118311,60.7843921 C451.066019,60.7843921 447.749021,59.4281812 445.167318,56.7157594 C442.585615,54.0033376 441.294764,50.522941 441.294764,46.2745695 C441.294764,42.026198 442.585615,38.5458013 445.167318,35.8333795 C447.749021,33.1209577 451.066019,31.7647468 455.118311,31.7647468 C459.105245,31.7647468 462.405902,33.1372976 465.020285,35.8823992 C467.634667,38.6275008 468.941859,42.1242373 468.941859,46.3726088 C468.941859,50.6209803 467.634667,54.0850371 465.020285,56.7647791 C462.405902,59.4445211 459.105245,60.7843921 455.118311,60.7843921 Z" id="overdrop" fill="#000000"></path>
        </g>
    </g>
</svg>